<svg width="45" height="45" viewBox="0 0 45 45" fill="none" xmlns="http://www.w3.org/2000/svg">
<path d="M17.8125 29.22V15.78C17.8128 15.6118 17.8583 15.4469 17.9442 15.3023C18.0302 15.1578 18.1535 15.0391 18.3011 14.9585C18.4487 14.878 18.6153 14.8387 18.7833 14.8446C18.9514 14.8506 19.1147 14.9017 19.2563 14.9925L29.7113 21.7106C29.8436 21.7954 29.9526 21.9122 30.028 22.0501C30.1034 22.1881 30.143 22.3428 30.143 22.5C30.143 22.6572 30.1034 22.8119 30.028 22.9499C29.9526 23.0878 29.8436 23.2045 29.7113 23.2894L19.2563 30.0094C19.1147 30.1002 18.9514 30.1512 18.7833 30.1572C18.6153 30.1632 18.4487 30.1239 18.3011 30.0433C18.1535 29.9628 18.0302 29.8441 17.9442 29.6995C17.8583 29.555 17.8128 29.39 17.8125 29.2219V29.22Z" fill="#E8E8E8"/>
<path d="M1.875 22.5C1.875 11.1094 11.1094 1.875 22.5 1.875C33.8906 1.875 43.125 11.1094 43.125 22.5C43.125 33.8906 33.8906 43.125 22.5 43.125C11.1094 43.125 1.875 33.8906 1.875 22.5ZM22.5 4.6875C17.7758 4.6875 13.2452 6.56417 9.90466 9.90466C6.56417 13.2452 4.6875 17.7758 4.6875 22.5C4.6875 27.2242 6.56417 31.7548 9.90466 35.0953C13.2452 38.4358 17.7758 40.3125 22.5 40.3125C27.2242 40.3125 31.7548 38.4358 35.0953 35.0953C38.4358 31.7548 40.3125 27.2242 40.3125 22.5C40.3125 17.7758 38.4358 13.2452 35.0953 9.90466C31.7548 6.56417 27.2242 4.6875 22.5 4.6875Z" fill="#E8E8E8"/>
</svg>
